# xmcd
#
# Track frame offsets: 
#        150
#        16316
#        30397
#        46698
#        64639
#        84564
#        101574
#        123408
#        136680
#        161157
#
# Disc length: 2362 seconds
#
# Revision: 0
# Processed by: cddbd v1.5.2PL0 Copyright (c) Steve Scherf et al.
# Submitted via: ExactAudioCopy v1.0b4
#
DISCID=7209380a
DTITLE=Willie May - Shaken Tree Blues
DYEAR=2014
DGENRE=Blues
TTITLE0=Dos Teresa
TTITLE1=Talk Is Cheap
TTITLE2=Everybody But Me
TTITLE3=Dont Quit Me
TTITLE4=She's Leaving
TTITLE5=Greta
TTITLE6=My Story
TTITLE7=Shaken Tree
TTITLE8=Heartbreak
TTITLE9=I'm Goin' Home
EXTD=
EXTT0=
EXTT1=
EXTT2=
EXTT3=
EXTT4=
EXTT5=
EXTT6=
EXTT7=
EXTT8=
EXTT9=
PLAYORDER=
